<?xml version="1.0" encoding="utf-8"?>
<!-- Generator: Adobe Illustrator 16.0.0, SVG Export Plug-In . SVG Version: 6.00 Build 0)  -->
<!DOCTYPE svg PUBLIC "-//W3C//DTD SVG 1.1//EN" "http://www.w3.org/Graphics/SVG/1.1/DTD/svg11.dtd">
<svg version="1.1" id="Layer_1" xmlns="http://www.w3.org/2000/svg" xmlns:xlink="http://www.w3.org/1999/xlink" x="0px" y="0px"
	 width="163.865px" height="137.602px" viewBox="0 0 163.865 137.602" enable-background="new 0 0 163.865 137.602"
	 xml:space="preserve">
<g id="Layer_2" display="none">
</g>
<g id="Logo_xA0_Image_1_">
</g>
<g id="Layer_3">
	<path fill="#EA5906" d="M38.186,11.279c3.17,4.567,6.34,9.135,9.51,13.701c0.722,1.041,5.415-0.295,4.629-1.427
		c-3.17-4.567-6.34-9.134-9.51-13.701C42.092,8.812,37.4,10.147,38.186,11.279L38.186,11.279z"/>
	<g>
		<path fill="#FFDD00" d="M40.334,47.507c2.91-5.181,17.704-25.119,41.612-21.638c23.909,3.48,53.276,24.271,48.711,56.458
			c-4.328,30.514-44.895,35.503-74.672,19.24c-10.752-5.872-17.293-15.688-19.813-23.936C31.958,63.842,38.529,50.721,40.334,47.507
			z"/>
		<path fill="#EA5906" d="M41.679,47.521c3.744-6.497,9.496-11.955,15.802-15.913c11.042-6.93,23.703-6.142,35.534-1.898
			c21.155,7.586,38.047,26.577,36.519,49.913c-1.597,24.367-25.775,32.318-46.839,29.656c-25.357-3.203-51.479-21.634-45.422-50.152
			C38.128,55.096,39.696,51.125,41.679,47.521c0.648-1.178-2.25-0.827-2.689-0.028c-5.135,9.328-7.095,20.166-4.267,30.526
			c2.951,10.812,11.619,19.698,21.27,24.855c16.532,8.835,37.764,11.747,55.447,4.738c18.234-7.226,24.449-26.479,19.365-44.562
			c-5.377-19.13-24.031-32.112-42.457-36.86c-19.149-4.935-39.502,4.194-49.36,21.303C38.322,48.65,41.225,48.311,41.679,47.521z"/>
	</g>
	<path fill="#EA5906" d="M51.787,48.471c-0.153,9.246,2.762,19.121,8.096,26.663c5.791,8.186,17.28,11.811,26.925,11.323
		c11.963-0.605,23.309-9.167,29.137-19.362c0.306-0.534-2.428-0.32-2.873,0.458c-5.719,10.004-16.613,18.027-28.4,17.599
		c-19.746-0.718-30.284-19.407-29.986-37.457C54.695,47.078,51.803,47.525,51.787,48.471L51.787,48.471z"/>
	<path fill="#EA5906" d="M72.202,40.672c0,0,0.201-0.029,0.553-0.079c0.35-0.043,0.849-0.083,1.45-0.107
		c1.205-0.058,2.824-0.005,4.474,0.391c0.411,0.127,0.823,0.208,1.227,0.39c0.405,0.152,0.803,0.322,1.179,0.559
		c0.382,0.193,0.723,0.49,1.043,0.767c0.334,0.249,0.561,0.644,0.805,0.937c0.227,0.312,0.348,0.676,0.451,0.976
		c0.12,0.304,0.059,0.592,0.038,0.816c-0.065,0.456-0.214,0.687-0.214,0.687c-0.266,0.411-0.815,0.528-1.226,0.263
		c-0.016-0.01-0.03-0.02-0.045-0.031l-0.268-0.198c0,0-0.204-0.151-0.366-0.364c-0.089-0.104-0.128-0.244-0.241-0.358
		c-0.107-0.115-0.108-0.292-0.228-0.44c-0.141-0.137-0.192-0.336-0.402-0.479c-0.184-0.153-0.356-0.336-0.625-0.47
		c-0.229-0.165-0.51-0.304-0.812-0.433c-0.28-0.152-0.629-0.233-0.947-0.355c-0.663-0.216-1.366-0.37-2.039-0.495
		c-0.673-0.118-1.315-0.21-1.869-0.274c-0.554-0.071-1.02-0.095-1.344-0.124c-0.322-0.023-0.506-0.037-0.506-0.037l-0.038-0.002
		c-0.425-0.031-0.744-0.4-0.714-0.825C71.568,41.011,71.85,40.722,72.202,40.672z"/>
	<path fill="#EA5906" d="M93.327,45.752c0,0,0.197-0.02,0.543-0.051c0.342-0.021,0.83-0.049,1.416-0.024
		c0.589,0.006,1.273,0.078,2.014,0.184c0.734,0.133,1.531,0.302,2.312,0.614c0.392,0.161,0.783,0.314,1.16,0.547
		c0.386,0.189,0.734,0.476,1.069,0.757c0.347,0.256,0.606,0.655,0.88,0.966c0.229,0.358,0.401,0.748,0.537,1.096
		c0.069,0.373,0.1,0.72,0.106,1.019c0.01,0.299-0.095,0.541-0.146,0.74c-0.123,0.397-0.246,0.594-0.246,0.594
		c-0.229,0.361-0.705,0.47-1.065,0.242c-0.099-0.062-0.179-0.143-0.237-0.233l-0.137-0.215c0,0-0.112-0.175-0.215-0.431
		c-0.063-0.125-0.077-0.285-0.161-0.432c-0.089-0.146-0.166-0.299-0.216-0.475c-0.114-0.148-0.187-0.321-0.283-0.508
		c-0.164-0.156-0.245-0.368-0.469-0.526c-0.197-0.173-0.403-0.351-0.672-0.504c-0.237-0.176-0.535-0.311-0.824-0.453
		c-0.286-0.147-0.616-0.247-0.916-0.384c-0.321-0.103-0.635-0.215-0.949-0.301c-0.627-0.187-1.23-0.328-1.756-0.438
		c-0.524-0.112-0.969-0.193-1.277-0.248c-0.307-0.054-0.482-0.083-0.482-0.083l-0.041-0.007c-0.397-0.068-0.664-0.446-0.597-0.845
		C92.733,46.023,93.007,45.782,93.327,45.752z"/>
	<path fill="#EA5906" d="M71.372,1.88c0,5.969,0,11.938,0,17.907c0,2.199,4.984,1.872,4.984-0.393c0-5.969,0-11.938,0-17.907
		C76.356-0.711,71.372-0.383,71.372,1.88L71.372,1.88z"/>
	<path fill="#EA5906" d="M99.995,24.58c5.051-5.212,10.102-10.423,15.15-15.636c2.065-2.131-2.595-2.625-3.905-1.271
		c-5.052,5.212-10.101,10.423-15.151,15.635C94.022,25.439,98.685,25.934,99.995,24.58L99.995,24.58z"/>
	<path fill="#EA5906" d="M131.979,27.786c-3.547,2.305-7.092,4.608-10.64,6.913c-0.521,0.339-4.638,3.364-1.604,2.758
		c3.27-0.655,6.563-2.504,9.328-4.3c3.545-2.306,7.092-4.609,10.639-6.913c0.521-0.34,4.638-3.365,1.605-2.759
		C138.037,24.141,134.742,25.99,131.979,27.786L131.979,27.786z"/>
	<path fill="#EA5906" d="M134.972,55.156c7.522-0.537,15.045-1.075,22.566-1.612c1.07-0.077-1.28-4.168-2.617-4.073
		c-7.521,0.537-15.044,1.075-22.566,1.612C131.283,51.158,133.635,55.25,134.972,55.156L134.972,55.156z"/>
	<path fill="#EA5906" d="M160.399,82.092c-4.879-1.773-9.758-3.546-14.635-5.319c-2.089-0.759-4.721-0.564-6.855-0.144
		c-0.623,0.123-3.77,1.085-1.711,1.833c4.879,1.772,9.757,3.546,14.635,5.319c2.088,0.759,4.721,0.564,6.855,0.144
		C159.312,83.802,162.457,82.84,160.399,82.092L160.399,82.092z"/>
	<path fill="#EA5906" d="M127.112,110.901c3.673,3.601,7.346,7.199,11.018,10.801c1.255,1.229,2.078,0.913,1.624-0.894
		c-0.544-2.166-1.8-4.623-3.405-6.197c-3.673-3.6-7.346-7.198-11.018-10.8c-1.255-1.229-2.078-0.913-1.624,0.894
		C124.251,106.87,125.507,109.327,127.112,110.901L127.112,110.901z"/>
	<path fill="#EA5906" d="M106.718,118.115c0.699,4.675,1.397,9.35,2.096,14.022c0.32,2.141,3.922,1.095,3.603-1.047
		c-0.699-4.675-1.397-9.35-2.097-14.023C109.999,114.927,106.397,115.973,106.718,118.115L106.718,118.115z"/>
	<path fill="#EA5906" d="M80.254,121.242c-0.43,4.028-0.86,8.06-1.29,12.089c-0.308,2.886,4.291,4.266,4.63,1.08
		c0.431-4.029,0.86-8.061,1.29-12.09C85.192,119.436,80.594,118.056,80.254,121.242L80.254,121.242z"/>
	<path fill="#EA5906" d="M55.659,113.712c-1.612,4.566-3.224,9.134-4.835,13.7c-0.65,1.843,4.286,2.18,4.82,0.666
		c1.612-4.567,3.224-9.135,4.835-13.7C61.129,112.536,56.193,112.199,55.659,113.712L55.659,113.712z"/>
	<path fill="#EA5906" d="M33.934,100.768c-2.297,2.271-4.536,4.605-6.713,6.992c-1.201,1.315-6.211,5.76-5.409,7.926
		c0.518,1.396,5.278-0.1,4.815-1.348c-0.275-0.742,1.146-2.199,1.539-2.711c1.318-1.719,2.791-3.323,4.256-4.916
		c1.929-2.096,3.914-4.145,5.938-6.146c0.832-0.821-0.732-1.083-1.229-1.061C35.993,99.556,34.755,99.955,33.934,100.768
		L33.934,100.768z"/>
	<path fill="#EA5906" d="M4.613,91.536c5.373-3.707,10.746-7.415,16.119-11.122c1.544-1.065-3.197-1.845-4.307-1.078
		C11.052,83.043,5.679,86.75,0.306,90.458C-1.238,91.523,3.503,92.301,4.613,91.536L4.613,91.536z"/>
	<path fill="#EA5906" d="M3.959,58.716c6.394,0,12.787,0,19.181,0c1.074,0,2.321-0.635,3.225-1.155
		c0.267-0.153,1.586-1.014,0.545-1.014c-6.394,0-12.788,0-19.181,0c-1.074,0-2.321,0.635-3.225,1.155
		C4.238,57.856,2.918,58.716,3.959,58.716L3.959,58.716z"/>
	<path fill="#EA5906" d="M10.471,34.705c6.823,1.719,13.647,3.438,20.47,5.157c1.07,0.271,1.625-0.7,1.263-1.604
		c-0.47-1.176-1.604-1.891-2.779-2.186c-6.823-1.72-13.647-3.438-20.47-5.158c-1.07-0.271-1.625,0.701-1.263,1.604
		C8.162,33.694,9.296,34.409,10.471,34.705L10.471,34.705z"/>
	<g>
		<line fill="none" x1="44.208" y1="11.694" x2="54.201" y2="26.04"/>
		<path fill="#FFDD00" d="M42.867,12.278c3.331,4.782,6.662,9.563,9.993,14.346c0.603,0.863,3.404-0.13,2.683-1.167
			c-3.331-4.782-6.662-9.563-9.993-14.346C44.947,10.247,42.145,11.242,42.867,12.278L42.867,12.278z"/>
	</g>
	<g>
		<path fill="#EA5906" d="M76.777,2.642c0,0,0.484,3.389,0.387,7.212c-0.097,3.824-0.777,12.229-0.777,12.229"/>
		<path fill="#FFDD00" d="M75.329,3.031c0.866,6.431,0.127,13.006-0.39,19.439c-0.033,0.413,2.828,0.096,2.897-0.776
			c0.518-6.435,1.255-13.009,0.39-19.439C78.147,1.667,75.226,2.27,75.329,3.031L75.329,3.031z"/>
	</g>
	<g>
		<line fill="none" x1="117.224" y1="7.115" x2="100.622" y2="24.361"/>
		<path fill="#FFDD00" d="M116.013,6.694c-5.533,5.749-11.066,11.498-16.602,17.247c-1.264,1.312,1.531,1.768,2.422,0.843
			c5.534-5.749,11.066-11.498,16.602-17.247C119.698,6.223,116.903,5.769,116.013,6.694L116.013,6.694z"/>
	</g>
	<g>
		<line fill="none" x1="142.53" y1="25.523" x2="125.767" y2="36.645"/>
		<path fill="#FFDD00" d="M140.687,24.493c-5.588,3.708-11.176,7.415-16.764,11.122c-3.281,2.177,1.655,3.409,3.688,2.062
			c5.589-3.708,11.177-7.415,16.765-11.122C147.655,24.377,142.719,23.145,140.687,24.493L140.687,24.493z"/>
	</g>
	<g>
		<line fill="none" x1="138.317" y1="55.537" x2="159.28" y2="53.281"/>
		<path fill="#FFDD00" d="M136.423,57.24c6.987-0.753,13.975-1.506,20.962-2.258c1.927-0.208,4.331-0.718,5.823-2.057
			c1.475-1.321-1.3-1.428-2.032-1.349c-6.987,0.752-13.975,1.505-20.962,2.257c-1.926,0.208-4.331,0.718-5.822,2.057
			C132.917,57.212,135.69,57.318,136.423,57.24L136.423,57.24z"/>
	</g>
	<g>
		<line fill="none" x1="143.386" y1="79.393" x2="159.776" y2="85.84"/>
		<path fill="#FFDD00" d="M141.044,80.662c5.464,2.148,10.928,4.298,16.391,6.447c1.506,0.593,6.801-1.706,4.685-2.539
			c-5.464-2.148-10.927-4.298-16.392-6.446C144.222,77.532,138.927,79.83,141.044,80.662L141.044,80.662z"/>
	</g>
	<g>
		<path fill="#EA5906" d="M127.379,105.666c0.483,0,16.683,16.683,16.683,16.683"/>
		<path fill="#FFDD00" d="M126.229,106.379c0.987,0.396,2.125,1.981,2.891,2.737c1.906,1.883,3.789,3.791,5.67,5.699
			c2.652,2.691,5.295,5.396,7.928,8.105c0.729,0.749,3.48-0.332,2.688-1.148c-2.786-2.869-5.584-5.729-8.393-8.577
			c-1.846-1.872-3.697-3.739-5.568-5.587c-0.797-0.785-1.836-2.227-2.916-2.657C127.633,104.592,124.996,105.886,126.229,106.379
			L126.229,106.379z"/>
	</g>
	<g>
		<path fill="#EA5906" d="M112.547,118.464l2.413,14.64l0.648,3.735"/>
		<path fill="#FFDD00" d="M111.099,118.853c1.01,6.126,1.998,12.257,3.062,18.375c0.12,0.688,3.036,0.023,2.897-0.776
			c-1.062-6.117-2.053-12.248-3.062-18.375C113.883,117.393,110.965,118.046,111.099,118.853L111.099,118.853z"/>
	</g>
	<g>
		<line fill="none" x1="86.276" y1="122.59" x2="84.183" y2="136.615"/>
		<path fill="#FFDD00" d="M84.815,122.722c-0.699,4.674-1.397,9.349-2.096,14.023c-0.207,1.38,2.743,0.943,2.924-0.265
			c0.698-4.674,1.396-9.349,2.096-14.022C87.946,121.079,84.996,121.514,84.815,122.722L84.815,122.722z"/>
	</g>
	<g>
		<line fill="none" x1="61.128" y1="114.854" x2="55.971" y2="130.167"/>
		<path fill="#FFDD00" d="M59.689,115.071c-1.719,5.104-3.438,10.208-5.158,15.312c-0.27,0.803,2.591,0.421,2.879-0.434
			c1.719-5.104,3.438-10.208,5.158-15.312C62.838,113.834,59.977,114.216,59.689,115.071L59.689,115.071z"/>
	</g>
	<g>
		<line fill="none" x1="36.729" y1="104.131" x2="24.317" y2="118.477"/>
		<path fill="#FFDD00" d="M34.341,103.418c-4.137,4.782-8.274,9.563-12.411,14.346c-2.354,2.721,3.231,3.209,4.774,1.426
			c4.137-4.781,8.274-9.563,12.411-14.346C41.469,102.124,35.884,101.635,34.341,103.418L34.341,103.418z"/>
	</g>
	<g>
		<path fill="#EA5906" d="M25,76.461c0,0-16.279,12.733-17.247,13.217"/>
		<path fill="#FFDD00" d="M22.754,76.273c-2.655,2.077-5.316,4.147-7.981,6.211c-1.936,1.5-3.875,2.995-5.824,4.479
			c-0.663,0.505-1.329,1.007-1.997,1.506c-0.209,0.155-1.694,1.157-0.901,0.7c-3.354,1.933,1.928,1.868,3.407,1.016
			c6.345-3.656,12.027-9.03,17.79-13.537C29.653,74.768,23.856,75.412,22.754,76.273L22.754,76.273z"/>
	</g>
	<g>
		<line fill="none" x1="8.909" y1="59.245" x2="27.769" y2="60.374"/>
		<path fill="#FFDD00" d="M7.754,60.783c6.286,0.376,12.573,0.752,18.859,1.129c2.062,0.123,6.218-2.844,2.311-3.077
			c-6.286-0.376-12.573-0.752-18.859-1.129C8.003,57.583,3.846,60.549,7.754,60.783L7.754,60.783z"/>
	</g>
	<g>
		<line fill="none" x1="13.262" y1="35.487" x2="33.571" y2="39.903"/>
		<path fill="#FFDD00" d="M11.523,37.192c6.77,1.473,13.54,2.944,20.309,4.416c2.062,0.449,6.867-2.673,3.479-3.409
			c-6.77-1.473-13.54-2.944-20.309-4.416C12.939,33.333,8.134,36.455,11.523,37.192L11.523,37.192z"/>
	</g>
</g>
</svg>
