<?xml version="1.0" encoding="utf-8"?>
<!-- Generator: Adobe Illustrator 16.0.0, SVG Export Plug-In . SVG Version: 6.00 Build 0)  -->
<!DOCTYPE svg PUBLIC "-//W3C//DTD SVG 1.1//EN" "http://www.w3.org/Graphics/SVG/1.1/DTD/svg11.dtd">
<svg version="1.1" xmlns="http://www.w3.org/2000/svg" xmlns:xlink="http://www.w3.org/1999/xlink" x="0px" y="0px"
	 width="411.913px" height="136.161px" viewBox="0 0 411.913 136.161" enable-background="new 0 0 411.913 136.161"
	 xml:space="preserve">
<g id="Layer_1">
	<path fill-rule="evenodd" clip-rule="evenodd" fill="#EB5E04" d="M251.761,136.161c-0.023-9.758-0.048-19.516-0.068-29.273
		c-0.006-3.111-0.001-6.224-0.001-9.335c-0.15-0.026-0.302-0.054-0.453-0.081c-0.241,0.593-0.488,1.183-0.722,1.779
		c-1.977,5.072-3.933,10.153-5.938,15.214c-0.5,1.261,0.475,2.132,0.661,3.349c-3.325,1.458-6.697,2.937-10.28,4.507
		c-2.709-7.213-5.408-14.399-8.106-21.586c-0.137,0.022-0.273,0.046-0.409,0.068c0,10.384,0,20.769,0,31.213
		c-3.815,0.49-7.412,0.952-11.093,1.426c-0.208-22.901-0.416-45.752-0.625-68.807c4.005-0.558,7.926-1.104,11.989-1.669
		c3.798,11.544,7.6,23.098,11.4,34.651c0.117,0.008,0.233,0.017,0.351,0.024c0.426-1.069,0.886-2.127,1.274-3.21
		c3.502-9.771,7.095-19.514,10.411-29.349c0.797-2.364,1.852-3.281,4.314-3.396c2.899-0.136,5.773-0.812,8.841-1.281
		c-0.171,24.829-0.34,49.519-0.51,74.311c-1.824,0.248-3.576,0.477-5.326,0.727c-1.585,0.228-3.167,0.479-4.751,0.719
		C252.4,136.161,252.08,136.161,251.761,136.161z"/>
	<path fill-rule="evenodd" clip-rule="evenodd" fill="#006F2E" d="M0,63.68c0.08-0.826,0.159-1.652,0.242-2.478
		c0.066-0.661,0.136-1.321,0.209-2.026c3.736,0.653,7.318,1.261,10.892,1.916c0.878,0.161,1.461,0.562,1.396,1.697
		c-0.166,2.867-0.178,5.743-0.27,8.615c-0.06,1.865-0.295,3.738-0.197,5.594c0.159,2.989,0.328,6.019,1.588,8.804
		c2.66,5.879,8,6.863,13.492,3.897c0.035-0.019,0.061-0.052,0.096-0.071c1.964-1.101,3.336-2.212,2.903-5.042
		c-0.599-3.909-0.364-7.939-0.623-11.909c-0.232-3.554-0.649-7.095-1-10.812c4.238-0.98,8.421-1.949,12.746-2.949
		c0.082,0.416,0.215,0.822,0.235,1.234c0.112,2.27,0.207,4.541,0.289,6.812c0.17,4.701,0.367,9.402,0.481,14.104
		c0.123,5.067,0.201,10.137,0.225,15.206c0.012,2.467-0.086,4.938-0.236,7.401c-0.327,5.392-0.704,10.782-2.99,15.806
		c-1.776,3.903-4.379,7.107-8.133,9.248c-7.232,4.123-14.176,2.918-20.815-1.412c-2.933-1.912-5.254-4.533-7.354-7.33
		c-0.212-0.283-0.395-0.597-0.645-0.841c-0.479-0.468-0.468-0.806,0.066-1.265c1.474-1.267,2.897-2.594,4.343-3.896
		c0.943-0.849,1.89-1.694,2.899-2.598c0.992,1.198,1.896,2.436,2.948,3.531c2.82,2.939,6.32,4.353,10.367,3.92
		c2.926-0.312,4.893-2.168,6.138-4.8c0.916-1.935,1.562-3.939,1.672-6.094c0.109-2.144,0.226-4.287,0.321-6.432
		c0.008-0.17-0.126-0.346-0.16-0.431c-1.983,0.749-3.874,1.572-5.833,2.172c-2.06,0.631-4.181,0.562-6.341,0.341
		c-5.645-0.581-9.556-3.8-12.709-8.143c-2.525-3.478-3.933-7.48-4.784-11.661c-0.943-4.634-1.303-9.331-1.228-14.062
		C0.235,69.314,0.08,68.897,0,68.48C0,66.88,0,65.28,0,63.68z"/>
	<path fill-rule="evenodd" clip-rule="evenodd" fill="#006F2E" d="M84.92,61.073c4.084-0.45,7.994-0.88,11.913-1.312
		c0,11.706,0,23.23,0,34.754c0.084,0.042,0.168,0.084,0.252,0.127c6.186-12.776,12.371-25.553,18.574-38.365
		c3.37,2.027,6.656,4.005,9.943,5.983c0.562,0.338,0.675,0.723,0.347,1.352c-1.128,2.161-3.163,6.562-3.163,6.562
		s-0.399,58.132-0.399,60.825c-3.813,0.589-7.312,1.13-11.173,1.727c0-12.938,0-25.682,0-38.425
		c-0.17-0.03-14.98,30.409-14.98,30.409s0.006,5.913,0.006,8.999c-3.575,0.555-7.133,1.106-10.937,1.695
		C85.175,110.639,85.048,85.921,84.92,61.073z"/>
	<path fill-rule="evenodd" clip-rule="evenodd" fill="#006F2E" d="M127.336,63.453c3.831-0.545,7.758-1.104,11.808-1.681
		c0,12.263,0,24.497,0,36.731c0.136,0.04,0.271,0.08,0.407,0.12C145.004,85.385,150.457,72.147,156,58.69
		c3.753,1.788,7.467,3.557,11.263,5.366c-1.151,2.683-2.277,5.306-3.401,7.93c-2.935,6.855-5.868,13.712-8.803,20.567
		c-1.759,4.107-3.466,8.24-5.321,12.305c-0.479,1.051-0.086,1.505,0.633,1.974c1.968,1.284,3.958,2.537,5.932,3.812
		c3.602,2.324,7.207,4.646,10.783,7.009c0.254,0.168,0.474,0.738,0.385,1.02c-1.262,3.986-2.58,7.954-3.899,11.97
		c-6.514-4.037-12.96-8.032-19.528-12.103c-0.913,2.172-1.8,4.257-2.667,6.351c-0.735,1.775-1.474,3.55-2.159,5.345
		c-0.419,1.098-1.44,0.712-2.144,0.836c-2.521,0.44-5.076,0.692-7.621,0.993c-0.464,0.055-0.941,0.008-1.623,0.008
		C127.666,109.194,127.501,86.395,127.336,63.453z"/>
	<path fill-rule="evenodd" clip-rule="evenodd" fill="#EB5E04" d="M171.977,119.99c2.631-2.351,5.157-4.606,7.787-6.955
		c0.532,0.649,1.057,1.27,1.56,1.907c2.556,3.242,5.761,5.33,9.976,5.618c3.741,0.256,6.68-2.003,8.145-5.387
		c1.146-2.646,1.654-5.421,1.676-8.293c0.01-1.387,0.002-2.773,0.002-4.346c-0.355,0.157-0.73,0.286-1.069,0.479
		c-2.478,1.405-5.164,2.264-7.978,2.368c-4.406,0.163-8.454-0.978-11.908-3.908c-4.978-4.225-7.429-9.82-8.779-16.007
		c-0.875-4.011-1.198-8.088-1.237-12.192c-0.022-2.388-0.204-4.774-0.211-7.163c-0.005-1.707,0.159-3.415,0.261-5.359
		c1.368,0.202,2.668,0.367,3.958,0.59c2.566,0.444,5.123,0.94,7.69,1.372c0.825,0.139,1.127,0.467,1.007,1.343
		c-0.217,1.568-0.372,3.15-0.443,4.731c-0.127,2.833-0.245,5.669-0.234,8.503c0.014,3.293,0.25,6.589,1.437,9.701
		c1.04,2.731,2.778,5.094,5.751,5.628c2.979,0.536,6.034,0.237,8.643-1.713c0.407-0.305,0.859-0.548,1.274-0.844
		c0.88-0.628,1.433-1.378,0.974-2.542c-0.111-0.283-0.079-0.629-0.092-0.946c-0.164-3.979-0.229-7.965-0.512-11.936
		c-0.251-3.502-0.758-6.984-1.104-10.48c-0.027-0.276,0.273-0.8,0.506-0.855c4.094-0.967,8.2-1.879,12.306-2.798
		c0.064-0.014,0.146,0.045,0.218,0.07c0.113,1.948,0.261,3.895,0.332,5.844c0.111,3.031,0.173,6.063,0.25,9.097
		c0.161,6.38,0.379,12.761,0.456,19.142c0.045,3.668-0.031,7.346-0.249,11.007c-0.281,4.727-0.676,9.448-2.358,13.957
		c-2.075,5.563-5.792,9.63-11.188,12.007c-2.82,1.242-5.877,1.383-8.982,0.991c-3.176-0.4-6.078-1.475-8.693-3.206
		C177.462,126.979,174.52,123.759,171.977,119.99z"/>
	<path fill-rule="evenodd" clip-rule="evenodd" fill="#006F2E" d="M56.879,131.32c-3.702,0.469-7.329,0.928-11.278,1.429
		c0-2.793,0-5.538,0-8.284c-0.001-8.519,0.026-17.037-0.011-25.556c-0.049-11.187-0.139-22.373-0.247-33.559
		c-0.009-0.924,0.25-1.367,1.184-1.494c3.386-0.463,6.765-0.969,10.353-1.489c0,0.569,0,0.987,0,1.406
		c0.005,5.039,0.01,10.078,0.019,15.117c0.001,0.513-0.004,1.029,0.056,1.537c0.082,0.699,0.26,1.096,1.215,0.902
		c1.392-0.282,2.846-0.248,4.272-0.371c1.659-0.143,3.313-0.375,4.975-0.441c0.936-0.038,0.996-0.499,0.994-1.226
		c-0.017-5.278-0.009-10.558-0.008-15.837c0-1.584,0.224-1.753,1.83-1.938c2.6-0.3,5.188-0.686,7.783-1.03
		c0.662-0.088,1.327-0.156,1.994-0.234c0,22.988,0,45.881,0,68.895c-3.749,0.472-7.365,0.927-11.049,1.392
		c-0.027-0.23-0.073-0.445-0.075-0.66c-0.085-9.865-0.157-19.73-0.255-29.596c-0.016-1.63-0.167-3.259-0.207-4.889
		c-0.017-0.685-0.379-0.809-0.927-0.751c-1.492,0.154-2.986,0.3-4.474,0.484c-1.643,0.204-3.276,0.485-4.921,0.66
		c-0.977,0.104-1.224,0.584-1.222,1.507c0.02,10.918,0.006,21.836,0.001,32.754C56.879,130.441,56.879,130.834,56.879,131.32z"/>
	<g>
		<linearGradient id="SVGID_1_" gradientUnits="userSpaceOnUse" x1="81.6846" y1="52.6089" x2="394.3511" y2="-88.058">
			<stop  offset="0" style="stop-color:#EB5E04"/>
			<stop  offset="0.2" style="stop-color:#F49800"/>
			<stop  offset="0.7261" style="stop-color:#63C01B"/>
			<stop  offset="1" style="stop-color:#1D7D1B"/>
		</linearGradient>
		<path fill-rule="evenodd" clip-rule="evenodd" fill="url(#SVGID_1_)" d="M125.55,48.561c-1.708-0.001-1.71-0.001-1.71-1.749
			c-0.001-12.116-0.001-24.231-0.001-36.347c0-0.41,0-0.82,0-1.55c-2.034,1.164-3.882,2.016-5.492,3.193
			c-2.3,1.682-4.664,3.383-6.579,5.463c-4.523,4.916-6.323,10.962-6.398,17.557c-0.045,4.038-0.043,8.077,0.015,12.115
			c0.016,1.08-0.341,1.431-1.378,1.332c-0.777-0.074-1.566-0.014-2.222-0.014c0,2.79,0,5.412,0,8.067c1.111,0,2.077,0,3.096,0
			c0-1.007,0.02-1.924-0.007-2.841c-0.02-0.673,0.274-0.917,0.933-0.915c5.798,0.013,11.596,0.012,17.394,0.003
			c0.834-0.001,1.128,0.406,1.102,1.193c-0.029,0.861-0.006,1.723-0.006,2.605c1.193,0,2.219,0,3.323,0c0-2.756,0-5.379,0-8.112
			C126.889,48.561,126.219,48.562,125.55,48.561z M117.731,48.585c-2.195-0.08-4.396-0.048-6.593-0.009
			c-0.836,0.015-1.24-0.197-1.233-1.133c0.034-4.396-0.223-8.809,0.077-13.185c0.356-5.205,2.335-9.88,5.875-13.806
			c0.64-0.71,1.319-1.388,2.012-2.048c0.264-0.251,0.616-0.41,1.172-0.768c0,1.394,0,2.42,0,3.446
			c0.001,8.713-0.014,17.425,0.024,26.138C119.07,48.254,118.812,48.624,117.731,48.585z"/>
		<linearGradient id="SVGID_2_" gradientUnits="userSpaceOnUse" x1="112.1987" y1="120.4341" x2="424.8637" y2="-20.2321">
			<stop  offset="0" style="stop-color:#EB5E04"/>
			<stop  offset="0.2" style="stop-color:#F49800"/>
			<stop  offset="0.7261" style="stop-color:#63C01B"/>
			<stop  offset="1" style="stop-color:#1D7D1B"/>
		</linearGradient>
		<path fill-rule="evenodd" clip-rule="evenodd" fill="url(#SVGID_2_)" d="M314.64,48.561c-1.903-0.019-1.896-0.02-1.896-1.874
			c-0.006-11.634-0.016-23.268-0.023-34.902c0-0.376,0-0.752,0-1.176c-1.753,0-3.306,0-4.999,0c0,0.408-0.001,0.685,0,0.961
			c0.015,10.514,0.032,21.028,0.043,31.542c0.001,1.357-0.071,2.715-0.04,4.071c0.021,0.927-0.427,1.16-1.252,1.147
			c-1.919-0.03-3.838-0.008-5.757-0.01c-1.633-0.001-1.675-0.043-1.675-1.703c-0.001-11.555-0.001-23.109-0.001-34.663
			c0-0.462,0-0.924,0-1.299c-1.747,0-3.332,0-4.964,0c0,14.014,0,27.942,0,41.983c0.417,0,0.767,0,1.116,0
			c5.037,0,10.075,0.021,15.112-0.019c0.948-0.008,1.3,0.275,1.233,1.233c-0.07,1.016-0.016,2.04-0.016,3.055
			c1.444,0,2.708,0,4.009,0c0-2.796,0-5.53,0-8.348C315.185,48.561,314.912,48.563,314.64,48.561z"/>
		<linearGradient id="SVGID_3_" gradientUnits="userSpaceOnUse" x1="104.314" y1="102.9097" x2="416.98" y2="-37.757">
			<stop  offset="0" style="stop-color:#EB5E04"/>
			<stop  offset="0.2" style="stop-color:#F49800"/>
			<stop  offset="0.7261" style="stop-color:#63C01B"/>
			<stop  offset="1" style="stop-color:#1D7D1B"/>
		</linearGradient>
		<path fill-rule="evenodd" clip-rule="evenodd" fill="url(#SVGID_3_)" d="M258.774,25.653c0-4.995,0-9.991,0-14.981
			c-1.812,0-3.421,0-5.01,0c0,14.041,0,27.971,0,41.907c1.667,0,3.25,0,4.949,0c0-0.444-0.001-0.834,0-1.225
			c0.001-5.397-0.022-10.795,0.036-16.191c0.007-0.688,0.314-1.454,0.701-2.04c0.85-1.288,1.825-2.494,2.772-3.715
			c1.382-1.783,2.784-3.55,4.178-5.324c0.144,0.03,0.286,0.06,0.43,0.09c0,9.467,0,18.933,0,28.367c1.832,0,3.445,0,5.007,0
			c0-14.379,0-28.66,0-43.141c-4.312,5.576-8.494,10.983-12.677,16.391C259.032,25.747,258.903,25.7,258.774,25.653z"/>
		<linearGradient id="SVGID_4_" gradientUnits="userSpaceOnUse" x1="99.6611" y1="92.5649" x2="412.3289" y2="-48.1024">
			<stop  offset="0" style="stop-color:#EB5E04"/>
			<stop  offset="0.2" style="stop-color:#F49800"/>
			<stop  offset="0.7261" style="stop-color:#63C01B"/>
			<stop  offset="1" style="stop-color:#1D7D1B"/>
		</linearGradient>
		<path fill-rule="evenodd" clip-rule="evenodd" fill="url(#SVGID_4_)" d="M231.106,25.625c-0.009-4.972-0.008-9.944-0.008-15.008
			c-1.833,0-3.365,0-4.961,0c0,14.09,0,28.024,0,41.941c1.638,0,3.178,0,4.742,0c0.029-0.474,0.076-0.87,0.075-1.265
			c-0.014-5.279-0.056-10.559-0.028-15.838c0.004-0.669,0.198-1.451,0.579-1.984c1.407-1.969,2.925-3.859,4.411-5.771
			c0.982-1.264,1.98-2.515,2.972-3.771c0.12,0.04,0.239,0.08,0.359,0.119c0,9.514,0,19.027,0,28.526c1.799,0,3.384,0,4.977,0
			c0-14.382,0-28.699,0-43.239c-4.353,5.635-8.562,11.084-12.761,16.52C231.228,25.706,231.106,25.666,231.106,25.625z"/>
		<linearGradient id="SVGID_5_" gradientUnits="userSpaceOnUse" x1="119.5078" y1="136.6802" x2="432.1737" y2="-3.9864">
			<stop  offset="0" style="stop-color:#EB5E04"/>
			<stop  offset="0.2" style="stop-color:#F49800"/>
			<stop  offset="0.7261" style="stop-color:#63C01B"/>
			<stop  offset="1" style="stop-color:#1D7D1B"/>
		</linearGradient>
		<path fill-rule="evenodd" clip-rule="evenodd" fill="url(#SVGID_5_)" d="M357.382,11.869c0.004,4.797-0.015,9.594,0.03,14.39
			c0.011,1.063-0.258,1.502-1.414,1.448c-1.994-0.094-3.998-0.072-5.994-0.007c-1.001,0.033-1.311-0.296-1.302-1.299
			c0.044-4.797,0.019-9.594,0.018-14.392c0-0.43,0-0.859,0-1.351c-1.697,0-3.277,0-4.908,0c0,14.062,0,27.99,0,41.895
			c1.692,0,3.271,0,4.91,0c0-0.601,0-1.116,0.001-1.631c0.006-5.876,0.042-11.752-0.01-17.628c-0.01-1.117,0.386-1.346,1.386-1.313
			c1.957,0.064,3.92,0.082,5.875-0.005c1.117-0.05,1.456,0.323,1.447,1.421c-0.046,6.036-0.033,12.072-0.035,18.108
			c0,0.347,0.051,0.694,0.077,1.036c1.687,0,3.295,0,4.879,0c0-14.041,0-27.982,0-41.849c-1.669,0-3.277,0-4.96,0
			C357.382,11.16,357.382,11.515,357.382,11.869z"/>
		<linearGradient id="SVGID_6_" gradientUnits="userSpaceOnUse" x1="95.5576" y1="83.4497" x2="408.2272" y2="-57.2185">
			<stop  offset="0" style="stop-color:#EB5E04"/>
			<stop  offset="0.2" style="stop-color:#F49800"/>
			<stop  offset="0.7261" style="stop-color:#63C01B"/>
			<stop  offset="1" style="stop-color:#1D7D1B"/>
		</linearGradient>
		<path fill-rule="evenodd" clip-rule="evenodd" fill="url(#SVGID_6_)" d="M216.995,16.869c0.88-2.042,1.74-4.093,2.701-6.354
			c-1.794,0-3.39-0.021-4.982,0.024c-0.221,0.006-0.535,0.292-0.634,0.522c-1.558,3.623-3.075,7.262-4.63,10.886
			c-0.583,1.358-1.238,2.686-1.86,4.028c-0.119-0.019-0.239-0.038-0.358-0.056c0-5.063,0-10.125,0-15.273c-1.835,0-3.444,0-5.079,0
			c0,13.951,0,27.927,0,41.905c1.687,0,3.299,0,5.084,0c0-5.849,0-11.611,0-17.374c0.146-0.012,0.294-0.023,0.44-0.034
			c2.092,5.83,4.184,11.661,6.268,17.469c1.823,0,3.54,0,5.388,0c-0.855-2.434-1.693-4.802-2.521-7.173
			c-1.726-4.944-3.459-9.886-5.147-14.842c-0.147-0.434-0.13-1.031,0.048-1.452C213.444,25.041,215.232,20.96,216.995,16.869z"/>
		<linearGradient id="SVGID_7_" gradientUnits="userSpaceOnUse" x1="126.7598" y1="152.7974" x2="439.4263" y2="12.1305">
			<stop  offset="0" style="stop-color:#EB5E04"/>
			<stop  offset="0.2" style="stop-color:#F49800"/>
			<stop  offset="0.7261" style="stop-color:#63C01B"/>
			<stop  offset="1" style="stop-color:#1D7D1B"/>
		</linearGradient>
		<path fill-rule="evenodd" clip-rule="evenodd" fill="url(#SVGID_7_)" d="M411.159,22.703c-1.446-4.975-4.685-8.532-9.258-10.802
			c-2.119-1.052-4.434-1.708-6.773-2.586c0,14.676,0,28.971,0,43.263c1.673,0,3.257,0,4.952,0c0-2.089-0.051-4.12,0.037-6.146
			c0.021-0.486,0.392-1.1,0.793-1.397c0.983-0.728,2.109-1.259,3.123-1.95C410.648,38.578,413.367,30.296,411.159,22.703z
			 M406.05,32.838c-1.011,2.887-2.995,5.088-5.725,7.065c-0.11-0.604-0.234-0.966-0.234-1.328
			c-0.013-6.836-0.014-13.672,0.001-20.508c0.001-0.369,0.173-0.736,0.265-1.104c0.376,0.16,0.81,0.248,1.12,0.491
			c3.299,2.582,5.472,5.905,5.697,10.121C407.267,29.309,406.641,31.149,406.05,32.838z"/>
		<linearGradient id="SVGID_8_" gradientUnits="userSpaceOnUse" x1="83.6089" y1="56.8872" x2="396.2784" y2="-83.781">
			<stop  offset="0" style="stop-color:#EB5E04"/>
			<stop  offset="0.2" style="stop-color:#F49800"/>
			<stop  offset="0.7261" style="stop-color:#63C01B"/>
			<stop  offset="1" style="stop-color:#1D7D1B"/>
		</linearGradient>
		<path fill-rule="evenodd" clip-rule="evenodd" fill="url(#SVGID_8_)" d="M139.145,48.337c-1.04,0.02-1.41-0.359-1.401-1.399
			c0.037-4.478,0.044-8.957-0.003-13.434c-0.012-1.146,0.365-1.562,1.524-1.524c2.187,0.071,4.376,0.02,6.612,0.02
			c0-1.461,0-2.806,0-4.318c-2.274,0-4.469-0.061-6.658,0.024c-1.198,0.047-1.51-0.4-1.48-1.531c0.069-2.597,0.01-5.198,0.024-7.796
			c0.023-4.179-0.514-3.62,3.594-3.649c1.504-0.011,3.009-0.002,4.483-0.002c0-1.46,0-2.758,0-4.063c-4.386,0-8.688,0-13.053,0
			c0,14.007,0,27.937,0,41.899c4.712,0,9.363,0,14.001,0c0-1.451,0-2.823,0-4.241C144.178,48.321,141.66,48.288,139.145,48.337z"/>
		<linearGradient id="SVGID_9_" gradientUnits="userSpaceOnUse" x1="115.4883" y1="127.7378" x2="428.1494" y2="-12.9266">
			<stop  offset="0" style="stop-color:#EB5E04"/>
			<stop  offset="0.2" style="stop-color:#F49800"/>
			<stop  offset="0.7261" style="stop-color:#63C01B"/>
			<stop  offset="1" style="stop-color:#1D7D1B"/>
		</linearGradient>
		<path fill-rule="evenodd" clip-rule="evenodd" fill="url(#SVGID_9_)" d="M328.538,48.344c-1.088,0.031-1.461-0.261-1.444-1.403
			c0.064-4.358,0.025-8.717,0.025-13.075C327.12,32,327.12,32,328.944,31.999c2.102,0,4.204,0,6.318,0c0-1.493,0-2.811,0-4.318
			c-2.367,0-4.638-0.035-6.905,0.017c-0.924,0.021-1.271-0.25-1.255-1.22c0.051-3.198,0.018-6.397,0.018-9.596
			c-0.001-2.154,0-2.155,2.22-2.157c1.945-0.001,3.892,0,5.875,0c0-1.431,0-2.729,0-4.087c-4.396,0-8.729,0-13.04,0
			c0,14.018,0,27.987,0,41.937c4.717,0,9.339,0,13.984,0c0-1.438,0-2.811,0-4.253C333.564,48.321,331.05,48.271,328.538,48.344z"/>
		<linearGradient id="SVGID_10_" gradientUnits="userSpaceOnUse" x1="123.2871" y1="145.0688" x2="435.9484" y2="4.4044">
			<stop  offset="0" style="stop-color:#EB5E04"/>
			<stop  offset="0.2" style="stop-color:#F49800"/>
			<stop  offset="0.7261" style="stop-color:#63C01B"/>
			<stop  offset="1" style="stop-color:#1D7D1B"/>
		</linearGradient>
		<path fill-rule="evenodd" clip-rule="evenodd" fill="url(#SVGID_10_)" d="M369.69,14.73c1.558,0,3.065,0.003,4.572,0
			c2.044-0.005,2.056-0.007,2.057,2.073c0.003,11.429-0.001,22.859-0.003,34.288c0,0.5,0,1,0,1.459c1.763,0,3.339,0,5.011,0
			c0-0.803,0.001-1.516,0-2.229c-0.004-11.389,0.004-22.778-0.031-34.167c-0.004-1.115,0.385-1.482,1.47-1.439
			c1.662,0.067,3.327,0.018,5.031,0.018c0-1.411,0-2.677,0-4.091c-6.087,0-12.062,0-18.106,0
			C369.69,12.002,369.69,13.298,369.69,14.73z"/>
		<linearGradient id="SVGID_11_" gradientUnits="userSpaceOnUse" x1="86.7021" y1="63.7642" x2="399.3719" y2="-76.9042">
			<stop  offset="0" style="stop-color:#EB5E04"/>
			<stop  offset="0.2" style="stop-color:#F49800"/>
			<stop  offset="0.7261" style="stop-color:#63C01B"/>
			<stop  offset="1" style="stop-color:#1D7D1B"/>
		</linearGradient>
		<path fill-rule="evenodd" clip-rule="evenodd" fill="url(#SVGID_11_)" d="M152.447,14.727c1.704,0,3.338,0.068,4.964-0.022
			c1.169-0.065,1.496,0.337,1.492,1.493c-0.038,11.68-0.022,23.359-0.022,35.039c0,0.429,0,0.858,0,1.328c1.729,0,3.342,0,5.038,0
			c0-0.546,0-1.019,0-1.492c0.001-11.6,0.021-23.2-0.024-34.799c-0.005-1.25,0.427-1.61,1.59-1.564
			c1.618,0.064,3.241,0.016,4.858,0.016c0-1.481,0-2.788,0-4.079c-5.988,0-11.919,0-17.896,0
			C152.447,11.995,152.447,13.266,152.447,14.727z"/>
		<linearGradient id="SVGID_12_" gradientUnits="userSpaceOnUse" x1="92.4316" y1="76.4966" x2="405.0988" y2="-64.1706">
			<stop  offset="0" style="stop-color:#EB5E04"/>
			<stop  offset="0.2" style="stop-color:#F49800"/>
			<stop  offset="0.7261" style="stop-color:#63C01B"/>
			<stop  offset="1" style="stop-color:#1D7D1B"/>
		</linearGradient>
		<path fill-rule="evenodd" clip-rule="evenodd" fill="url(#SVGID_12_)" d="M175.943,34.053c0.761,9.748,8.621,17.747,16.775,19.299
			c0-1.22-0.053-2.34,0.019-3.453c0.05-0.777-0.2-1.223-0.888-1.603c-2.742-1.512-5.139-3.436-7.117-5.899
			c-4.312-5.366-5.011-12.56-2.055-18.448c2.088-4.159,5.385-7.104,9.418-9.311c0.341-0.186,0.79-0.565,0.811-0.879
			c0.088-1.379,0.038-2.767,0.038-4.186C183.743,12.195,174.917,20.905,175.943,34.053z"/>
		<linearGradient id="SVGID_13_" gradientUnits="userSpaceOnUse" x1="93.6421" y1="79.1851" x2="406.3084" y2="-61.4817">
			<stop  offset="0" style="stop-color:#EB5E04"/>
			<stop  offset="0.2" style="stop-color:#F49800"/>
			<stop  offset="0.7261" style="stop-color:#63C01B"/>
			<stop  offset="1" style="stop-color:#1D7D1B"/>
		</linearGradient>
		<path fill-rule="evenodd" clip-rule="evenodd" fill="url(#SVGID_13_)" d="M265.632,6.914c1.846-1.615,2.873-3.738,3.942-5.92
			c-0.629-0.336-1.176-0.628-1.86-0.994c-1.211,2.236-2.105,4.795-5.202,4.617c-2.76-0.159-3.675-2.395-4.654-4.616
			c-0.599,0.365-1.16,0.707-1.711,1.043c1.212,2.77,2.562,4.524,3.89,5.861C261.704,8.585,264.236,8.134,265.632,6.914z"/>
	</g>
	<g>
		<path fill-rule="evenodd" clip-rule="evenodd" fill="#00A03C" d="M379.173,101.045c0,0-0.318-2.017-0.422-2.567
			c-1.061-5.644-6.173-12.556-12.882-13.55c-0.874-0.129-4.475-0.204-5.435,0.04c-7.335,1.869-11.382,6.782-12.959,13.992
			c-0.07,0.322-0.278,2.085-0.278,2.085h2.83c0.574-4.193,2.419-7.596,5.844-10.165c-1.407,4.577-2.289,9.2-2.106,14.079
			c1.034,0,1.948,0.042,2.857-0.012c0.98-0.057,1.314,0.299,1.312,1.315c-0.024,6.877,0.013,13.755,0.029,20.632
			c0.002,0.5,0.001,1.001,0.001,1.488c1.114,0,2.167,0,3.249,0c0-7.017-0.016-13.936,0.007-20.854
			c0.009-2.919-0.431-2.495,2.65-2.588c1.121-0.034,1.432,0.377,1.426,1.463c-0.038,6.92-0.017,13.84-0.015,20.759
			c0,0.422,0,0.843,0,1.259c1.117,0,2.063,0,3.131,0c0-0.525,0-0.994,0-1.463c-0.001-6.88,0.018-13.759-0.023-20.639
			c-0.007-1.041,0.287-1.453,1.351-1.374c0.976,0.074,1.961,0.016,2.952,0.016c-0.009-4.915-0.594-9.562-2.161-14.128
			c0.96,0.601,1.782,1.23,2.387,2.026c1.84,2.421,3.149,5.11,3.476,8.185H379.173z"/>
		<ellipse fill-rule="evenodd" clip-rule="evenodd" fill="#00A03C" cx="363.17" cy="76.318" rx="6.77" ry="7.665"/>
	</g>
	<g>
		<path fill-rule="evenodd" clip-rule="evenodd" fill="#F49800" d="M347.197,101.045c0,0-0.318-2.017-0.422-2.567
			c-1.061-5.644-6.173-12.556-12.882-13.55c-0.874-0.129-4.475-0.204-5.435,0.04c-7.335,1.869-11.382,6.782-12.959,13.992
			c-0.07,0.322-0.278,2.085-0.278,2.085h2.83c0.574-4.193,2.419-7.596,5.844-10.165c-1.407,4.577-2.289,9.2-2.106,14.079
			c1.034,0,1.948,0.042,2.857-0.012c0.98-0.057,1.314,0.299,1.312,1.315c-0.024,6.877,0.013,13.755,0.029,20.632
			c0.002,0.5,0.001,1.001,0.001,1.488c1.114,0,2.167,0,3.249,0c0-7.017-0.016-13.936,0.007-20.854
			c0.009-2.919-0.431-2.495,2.65-2.588c1.121-0.034,1.432,0.377,1.426,1.463c-0.038,6.92-0.017,13.84-0.015,20.759
			c0,0.422,0,0.843,0,1.259c1.117,0,2.063,0,3.131,0c0-0.525,0-0.994,0-1.463c-0.001-6.88,0.018-13.759-0.023-20.639
			c-0.007-1.041,0.287-1.453,1.351-1.374c0.976,0.074,1.961,0.016,2.952,0.016c-0.009-4.915-0.594-9.562-2.161-14.128
			c0.96,0.601,1.782,1.23,2.387,2.026c1.84,2.421,3.149,5.11,3.476,8.185H347.197z"/>
		<ellipse fill-rule="evenodd" clip-rule="evenodd" fill="#F49800" cx="331.194" cy="76.318" rx="6.77" ry="7.665"/>
	</g>
	<g>
		<path fill-rule="evenodd" clip-rule="evenodd" fill="#D3190D" d="M315.222,101.045c0,0-0.318-2.017-0.422-2.567
			c-1.061-5.644-6.173-12.556-12.882-13.55c-0.874-0.129-4.475-0.204-5.435,0.04c-7.335,1.869-11.382,6.782-12.959,13.992
			c-0.07,0.322-0.278,2.085-0.278,2.085h2.83c0.574-4.193,2.419-7.596,5.844-10.165c-1.407,4.577-2.289,9.2-2.106,14.079
			c1.034,0,1.948,0.042,2.857-0.012c0.98-0.057,1.314,0.299,1.312,1.315c-0.024,6.877,0.013,13.755,0.029,20.632
			c0.002,0.5,0.001,1.001,0.001,1.488c1.114,0,2.167,0,3.249,0c0-7.017-0.016-13.936,0.007-20.854
			c0.009-2.919-0.431-2.495,2.65-2.588c1.121-0.034,1.432,0.377,1.426,1.463c-0.038,6.92-0.017,13.84-0.015,20.759
			c0,0.422,0,0.843,0,1.259c1.117,0,2.063,0,3.131,0c0-0.525,0-0.994,0-1.463c-0.001-6.88,0.018-13.759-0.023-20.639
			c-0.007-1.041,0.287-1.453,1.351-1.374c0.976,0.074,1.961,0.016,2.952,0.016c-0.009-4.915-0.594-9.562-2.161-14.128
			c0.96,0.601,1.782,1.23,2.387,2.026c1.84,2.421,3.149,5.11,3.476,8.185H315.222z"/>
		<ellipse fill-rule="evenodd" clip-rule="evenodd" fill="#D3190D" cx="299.219" cy="76.318" rx="6.77" ry="7.665"/>
	</g>
	<g>
		<path fill-rule="evenodd" clip-rule="evenodd" fill="#009EE3" d="M411.115,101.045c0,0-0.318-2.017-0.422-2.567
			c-1.061-5.644-6.173-12.556-12.882-13.55c-0.874-0.129-4.475-0.204-5.435,0.04c-7.335,1.869-11.382,6.782-12.959,13.992
			c-0.07,0.322-0.278,2.085-0.278,2.085h2.83c0.574-4.193,2.419-7.596,5.844-10.165c-1.407,4.577-2.289,9.2-2.106,14.079
			c1.034,0,1.948,0.042,2.857-0.012c0.98-0.057,1.314,0.299,1.312,1.315c-0.024,6.877,0.013,13.755,0.029,20.632
			c0.002,0.5,0.001,1.001,0.001,1.488c1.114,0,2.167,0,3.249,0c0-7.017-0.016-13.936,0.007-20.854
			c0.009-2.919-0.431-2.495,2.65-2.588c1.121-0.034,1.432,0.377,1.426,1.463c-0.038,6.92-0.017,13.84-0.015,20.759
			c0,0.422,0,0.843,0,1.259c1.117,0,2.063,0,3.131,0c0-0.525,0-0.994,0-1.463c-0.001-6.88,0.018-13.759-0.023-20.639
			c-0.007-1.041,0.287-1.453,1.351-1.374c0.976,0.074,1.961,0.016,2.952,0.016c-0.009-4.915-0.594-9.562-2.161-14.128
			c0.96,0.601,1.782,1.23,2.387,2.026c1.84,2.421,3.149,5.11,3.476,8.185H411.115z"/>
		<ellipse fill-rule="evenodd" clip-rule="evenodd" fill="#009EE3" cx="395.112" cy="76.318" rx="6.77" ry="7.665"/>
	</g>
</g>
<g id="Layer_2">
</g>
</svg>
