<?xml version="1.0" standalone="no"?>
<!DOCTYPE svg PUBLIC "-//W3C//DTD SVG 20010904//EN"
 "http://www.w3.org/TR/2001/REC-SVG-20010904/DTD/svg10.dtd">
<svg version="1.0" xmlns="http://www.w3.org/2000/svg"
 width="700.000000pt" height="700.000000pt" viewBox="0 0 700.000000 700.000000"
 preserveAspectRatio="xMidYMid meet">
<metadata>
Created by potrace 1.11, written by Peter Selinger 2001-2013
</metadata>
<g transform="translate(0.000000,700.000000) scale(0.100000,-0.100000)"
fill="#000000" stroke="none">
<path d="M3088 6415 c-15 -8 -30 -25 -34 -37 -4 -13 -8 -198 -8 -413 -1 -389
-1 -390 21 -412 21 -22 45 -27 105 -23 23 1 27 -3 30 -32 3 -30 6 -33 33 -30
41 4 85 22 86 36 0 6 2 27 4 46 2 19 7 73 10 120 4 47 9 105 11 130 13 145 5
514 -11 541 -3 4 -21 6 -40 3 -32 -4 -35 -2 -35 20 0 56 -105 87 -172 51z"/>
<path d="M4979 6162 c-8 -3 -24 -13 -36 -24 -12 -11 -27 -17 -33 -13 -32 20
-145 9 -160 -15 -3 -4 -127 -133 -276 -286 -395 -406 -395 -406 -392 -429 6
-39 43 -45 235 -36 16 1 22 8 543 551 40 41 103 107 141 146 38 40 69 76 69
82 0 24 -50 36 -91 24z"/>
<path d="M1700 6013 c-53 -18 -70 -30 -70 -50 0 -7 35 -64 79 -126 43 -62 136
-195 207 -297 l129 -185 40 1 c22 0 58 4 80 8 39 8 41 7 72 -37 28 -40 36 -45
62 -42 44 6 71 23 71 45 0 10 -51 92 -114 182 -63 90 -134 191 -158 226 -156
225 -157 227 -198 228 -30 0 -44 7 -65 32 -31 37 -63 40 -135 15z"/>
<path d="M5990 5419 c-88 -23 -242 -96 -355 -170 -44 -28 -111 -72 -150 -97
-352 -228 -434 -289 -419 -314 8 -12 75 -1 137 23 27 11 46 15 42 9 -10 -17
13 -47 46 -59 67 -23 129 -6 226 61 27 18 56 38 65 43 9 6 97 64 195 129 98
66 229 153 291 194 62 41 120 85 129 99 15 23 15 26 -5 45 -13 14 -38 22 -71
26 -28 2 -48 8 -46 13 11 17 -13 16 -85 -2z"/>
<path d="M3062 5354 c-199 -29 -402 -94 -587 -186 -106 -52 -290 -170 -365
-234 -84 -71 -246 -239 -306 -319 -111 -146 -213 -334 -272 -500 -30 -83 -63
-210 -77 -295 -9 -52 -18 -106 -21 -120 -6 -34 -6 -319 1 -350 3 -14 7 -45 10
-69 11 -90 51 -237 92 -341 4 -8 7 -17 8 -20 2 -7 62 -124 86 -167 27 -48 110
-168 144 -208 271 -319 587 -528 1043 -691 177 -63 452 -132 599 -149 27 -3
57 -8 68 -10 47 -9 221 -19 355 -19 308 0 536 36 803 125 540 180 868 550 983
1104 45 220 33 531 -32 788 -25 101 -35 128 -86 257 -251 621 -931 1155 -1743
1366 -197 52 -502 68 -703 38z"/>
<path d="M345 5106 c-40 -29 -15 -93 51 -132 22 -13 50 -24 62 -24 12 0 22 -4
22 -10 0 -5 -5 -10 -10 -10 -19 0 -32 -52 -18 -66 11 -10 154 -46 268 -68 14
-2 48 -10 75 -16 28 -6 59 -14 70 -16 40 -8 63 -13 225 -49 206 -45 199 -44
235 -51 51 -10 94 -5 138 15 75 35 109 78 82 105 -12 12 -137 46 -169 46 -7 0
-30 13 -52 29 -34 25 -157 62 -354 106 -8 2 -141 35 -295 74 -154 39 -288 73
-297 75 -9 2 -24 -1 -33 -8z"/>
<path d="M6497 4314 c-1 -1 -51 -5 -112 -9 -60 -4 -126 -8 -145 -10 -19 -2
-82 -6 -140 -10 -58 -3 -125 -8 -150 -10 -25 -2 -90 -7 -145 -10 -103 -6 -153
-12 -166 -21 -24 -15 67 -150 108 -160 l25 -7 -26 -22 c-55 -47 -17 -70 98
-61 45 3 90 8 101 10 11 2 56 7 100 11 44 4 87 8 95 10 8 2 50 6 92 9 42 4 86
9 97 11 11 2 51 6 88 10 37 3 85 8 106 10 89 12 116 15 177 20 162 15 325 98
269 137 -14 9 -223 3 -239 -7 -5 -3 -17 10 -29 28 -41 67 -62 78 -135 75 -37
-1 -68 -3 -69 -4z"/>
<path d="M280 4011 c-40 -12 -105 -48 -119 -65 -15 -18 -5 -19 92 -16 l49 2
-23 -31 c-35 -48 -16 -58 126 -66 44 -3 112 -7 150 -10 39 -3 113 -8 165 -10
147 -8 237 -14 337 -20 113 -8 157 3 214 53 l43 39 -26 17 c-18 12 -57 18
-129 22 -57 4 -105 8 -107 9 -2 2 20 16 49 32 29 15 54 34 57 41 3 9 -86 12
-425 11 -235 0 -439 -4 -453 -8z"/>
<path d="M1077 3208 c-64 -8 -110 -27 -147 -61 -83 -73 -108 -87 -159 -87 -52
0 -86 -20 -321 -185 -53 -37 -103 -72 -330 -228 -63 -44 -116 -80 -118 -82 -1
-1 0 -9 4 -18 6 -15 56 -29 124 -33 21 -1 51 7 75 21 24 13 65 24 103 28 44 4
78 14 120 37 85 48 248 165 387 279 73 59 132 107 141 116 6 5 53 44 104 85
116 93 132 109 126 119 -9 14 -47 17 -109 9z"/>
<path d="M5998 3174 c-2 -1 -21 -4 -44 -7 -63 -9 -124 -37 -124 -56 0 -13 22
-25 81 -46 57 -20 83 -34 89 -49 6 -16 61 -42 236 -110 126 -49 243 -95 259
-102 156 -67 240 -94 275 -90 49 6 133 42 156 67 22 25 9 39 -57 63 l-52 19
27 14 c53 28 30 43 -179 119 -524 190 -482 177 -577 179 -49 1 -89 1 -90 -1z"/>
<path d="M1530 2177 c-40 -8 -59 -24 -170 -136 -339 -343 -430 -453 -430 -519
0 -27 5 -35 30 -46 l30 -12 -29 -28 c-16 -16 -35 -41 -42 -57 -10 -25 -9 -32
6 -49 37 -41 159 -34 208 13 13 12 97 108 187 212 90 105 179 208 199 230 54
61 144 166 158 184 33 44 -2 90 -71 94 -20 1 -36 4 -36 7 0 3 18 24 40 45 45
44 47 50 23 60 -29 12 -55 12 -103 2z"/>
<path d="M5277 2010 c-7 -26 16 -98 55 -180 27 -56 66 -99 268 -300 297 -295
325 -320 351 -320 19 0 21 4 16 43 -3 23 -9 51 -13 62 -4 11 28 -17 72 -62 79
-81 80 -82 117 -73 40 9 67 26 67 43 0 6 -65 76 -144 156 -79 81 -238 242
-353 359 -116 116 -215 213 -221 213 -7 1 -18 2 -24 3 -7 1 -22 -1 -33 -5 -16
-5 -32 4 -70 37 -53 48 -80 55 -88 24z"/>
<path d="M2410 1607 c-13 -7 -30 -23 -37 -37 -22 -43 -203 -571 -203 -590 0
-31 42 -51 104 -51 31 0 61 3 67 7 9 5 10 2 5 -12 -4 -10 -10 -32 -13 -48 l-6
-29 49 7 c27 3 54 12 61 19 7 7 63 161 123 342 118 351 118 351 53 341 -27 -4
-33 -1 -33 14 0 42 -113 66 -170 37z"/>
<path d="M4602 1473 c-33 -16 -57 -61 -48 -90 3 -10 8 -34 10 -53 11 -81 28
-196 31 -212 2 -9 11 -68 20 -130 9 -62 18 -122 20 -133 2 -11 4 -30 4 -43 1
-30 43 -72 67 -67 11 2 24 4 31 4 7 1 24 13 37 28 28 30 28 44 1 213 -8 47
-17 105 -20 130 -3 25 -7 56 -10 70 -2 14 -6 41 -9 60 -5 42 -19 132 -22 143
-1 4 -2 18 -3 32 -1 28 -32 59 -61 61 -10 1 -32 -5 -48 -13z"/>
<path d="M4797 1399 c-42 -11 -59 -29 -53 -55 3 -12 8 -40 11 -61 3 -21 28
-173 56 -338 47 -279 55 -332 58 -361 2 -29 91 -20 117 12 7 9 1 68 -23 206
-18 106 -36 209 -39 228 -6 39 -32 200 -39 240 -3 14 -8 46 -11 73 -8 61 -23
71 -77 56z"/>
<path d="M3455 1316 c-24 -21 -31 -49 -40 -146 -2 -25 -6 -63 -9 -85 -3 -22
-8 -69 -11 -105 -3 -36 -8 -78 -10 -95 -22 -176 -17 -210 42 -246 25 -16 44
-20 72 -16 35 4 37 3 34 -17 -7 -32 19 -48 62 -40 46 8 61 33 70 109 4 33 9
69 11 80 6 33 35 227 40 270 3 22 7 51 10 65 3 14 8 43 10 64 3 22 7 43 9 46
2 4 -2 16 -10 27 -12 18 -20 20 -50 13 -20 -4 -42 -14 -50 -20 -13 -10 -15 -8
-15 16 -1 74 -112 128 -165 80z"/>
</g>
</svg>
